<?xml version="1.0" encoding="UTF-8"?><svg id="Layer_2" xmlns="http://www.w3.org/2000/svg" viewBox="0 0 1280 1280"><g id="Layer_2-2"><g><rect width="1280" height="1280" rx="189.79" ry="189.79" style="fill:#0d0d19;"/><g><g><line x1="107.31" y1="783.17" x2="1172.69" y2="783.17" style="fill:#fff; stroke:#2bc0d3; stroke-linecap:round; stroke-linejoin:round; stroke-width:19.31px;"/><circle cx="77.9" cy="783.17" r="29.41" style="fill:none; stroke:#2bc0d3; stroke-linecap:round; stroke-linejoin:round; stroke-width:19.31px;"/><circle cx="1202.1" cy="783.17" r="29.41" style="fill:none; stroke:#2bc0d3; stroke-linecap:round; stroke-linejoin:round; stroke-width:19.31px;"/></g><g><g><path d="m235.96,1096.14h-112.38v-270.98h111.34v35.84h-70.82v79.13h60.95v35.15h-60.95v85.02h71.86v35.84Z" style="fill:#216292; stroke:#216292; stroke-width:.83px;"/><path d="m398.55,825.16l-51.95,271.33h-40.34l-51.77-271.33h40.69l30.3,185.79c.23,5.31.58,13.05,1.04,23.2-.12-5.31.23-13.04,1.04-23.2l30.48-185.79h40.52Z" style="fill:#216292; stroke:#216292; stroke-width:.83px;"/><path d="m558.03,1071.38c0,16.51-8.2,24.76-24.59,24.76h-87.96c-16.05,0-24.07-8.25-24.07-24.76v-221.29c0-16.62,8.02-24.93,24.07-24.93h87.96c16.39,0,24.59,8.31,24.59,24.93v221.29Zm-40.52-10.04v-201.38h-55.58v201.38h55.58Z" style="fill:#216292; stroke:#216292; stroke-width:.83px;"/><path d="m697.07,1096.14h-106.49v-270.98h40.52v234.79h65.97v36.19Z" style="fill:#216292; stroke:#216292; stroke-width:.83px;"/><path d="m856.02,825.16l-51.95,271.33h-40.34l-51.77-271.33h40.69l30.3,185.79c.23,5.31.58,13.05,1.04,23.2-.12-5.31.23-13.04,1.04-23.2l30.48-185.79h40.52Z" style="fill:#216292; stroke:#216292; stroke-width:.83px;"/><path d="m991.26,1096.14h-112.38v-270.98h111.34v35.84h-70.82v79.13h60.95v35.15h-60.95v85.02h71.86v35.84Z" style="fill:#216292; stroke:#216292; stroke-width:.83px;"/><path d="m1154.02,1045.06c0,15.93-4.73,28.43-14.2,37.49-9.47,9.06-22.22,13.59-38.27,13.59h-82.59v-270.98h82.59c16.04,0,28.8,4.59,38.27,13.77,9.46,9.18,14.2,21.73,14.2,37.66v168.48Zm-40.69-6.75v-155.66c0-15.12-7.91-22.68-23.72-22.68h-30.13v201.38h29.09c16.51,0,24.76-7.68,24.76-23.03Z" style="fill:#216292; stroke:#216292; stroke-width:.83px;"/></g><g><path d="m235.96,1096.14h-112.38v-270.98h111.34v35.84h-70.82v79.13h60.95v35.15h-60.95v85.02h71.86v35.84Z" style="fill:#2bc0d3;"/><path d="m398.55,825.16l-51.95,271.33h-40.34l-51.77-271.33h40.69l30.3,185.79c.23,5.31.58,13.05,1.04,23.2-.12-5.31.23-13.04,1.04-23.2l30.48-185.79h40.52Z" style="fill:#2bc0d3;"/><path d="m558.03,1071.38c0,16.51-8.2,24.76-24.59,24.76h-87.96c-16.05,0-24.07-8.25-24.07-24.76v-221.29c0-16.62,8.02-24.93,24.07-24.93h87.96c16.39,0,24.59,8.31,24.59,24.93v221.29Zm-40.52-10.04v-201.38h-55.58v201.38h55.58Z" style="fill:#2bc0d3;"/><path d="m697.07,1096.14h-106.49v-270.98h40.52v234.79h65.97v36.19Z" style="fill:#2bc0d3;"/><path d="m856.02,825.16l-51.95,271.33h-40.34l-51.77-271.33h40.69l30.3,185.79c.23,5.31.58,13.05,1.04,23.2-.12-5.31.23-13.04,1.04-23.2l30.48-185.79h40.52Z" style="fill:#2bc0d3;"/><path d="m991.26,1096.14h-112.38v-270.98h111.34v35.84h-70.82v79.13h60.95v35.15h-60.95v85.02h71.86v35.84Z" style="fill:#2bc0d3;"/><path d="m1154.02,1045.06c0,15.93-4.73,28.43-14.2,37.49-9.47,9.06-22.22,13.59-38.27,13.59h-82.59v-270.98h82.59c16.04,0,28.8,4.59,38.27,13.77,9.46,9.18,14.2,21.73,14.2,37.66v168.48Zm-40.69-6.75v-155.66c0-15.12-7.91-22.68-23.72-22.68h-30.13v201.38h29.09c16.51,0,24.76-7.68,24.76-23.03Z" style="fill:#2bc0d3;"/></g></g><g><g><polygon points="284.73 418.93 291.08 396.61 217.49 137.86 204.8 137.86 284.73 418.93" style="fill:#2bc0d3;"/><polygon points="199.98 468.45 199.98 717.47 126.93 717.47 126.93 737.47 219.98 737.47 219.98 547.17 199.98 468.45" style="fill:#2bc0d3;"/><polygon points="363.22 466.98 314.42 663.41 279.24 663.41 284.32 683.41 335.53 683.41 363.22 570.47 363.22 466.98" style="fill:#2bc0d3;"/><polygon points="472.54 137.86 472.54 717.47 399.48 717.47 399.48 737.47 492.54 737.47 492.54 137.86 472.54 137.86" style="fill:#2bc0d3;"/></g><g><polygon points="631.69 201.85 631.69 617.06 651.69 617.06 651.69 221.85 721.45 221.85 721.45 201.85 631.69 201.85" style="fill:#2bc0d3;"/><path d="m834.31,654.41c0,20.41-5.43,36.19-16.15,46.91-10.72,10.72-26.5,16.15-46.91,16.15h-184.48c-8.76,0-16.64-1.05-23.62-3.14,1.81,3.12,3.92,5.93,6.34,8.42,9.5,9.77,23.72,14.72,42.28,14.72h184.48c19.03,0,33.63-4.94,43.37-14.68,9.75-9.74,14.69-24.34,14.69-43.37v-150.3h-20v125.3Z" style="fill:#2bc0d3;"/><path d="m839.63,152.65c-2.59-2.61-5.54-4.87-8.81-6.79,2.31,7.46,3.48,15.94,3.48,25.44v147.36h-76.08v20h96.08v-142.36c0-19.15-4.94-33.84-14.68-43.65Z" style="fill:#2bc0d3;"/></g><g><rect x="990.81" y="534.41" width="20" height="82.65" style="fill:#2bc0d3;"/><polygon points="990.81 200.33 990.81 287.06 1010.81 305.9 1010.81 220.33 1074.75 220.33 1074.75 200.33 990.81 200.33" style="fill:#2bc0d3;"/><path d="m1186.85,487.49l-5.13-4.83c3.76,9.18,5.66,19.45,5.66,30.75v141c0,20.4-5.4,36.17-16.04,46.89-10.66,10.73-26.35,16.17-46.64,16.17h-178.05c-9.05,0-17.17-1.1-24.35-3.28,1.85,3.18,4.02,6.05,6.52,8.58,9.62,9.76,24.03,14.7,42.82,14.7h178.05c18.91,0,33.41-4.94,43.1-14.69,9.68-9.74,14.58-24.33,14.58-43.36v-141c0-20.96-6.91-38.1-20.54-50.92Z" style="fill:#2bc0d3;"/><path d="m1192.79,152.46c-2.58-2.58-5.51-4.81-8.77-6.71,2.23,7.29,3.36,15.56,3.36,24.8v141.31h-76.46v20h96.46v-136.31c0-18.91-4.91-33.4-14.59-43.09Z" style="fill:#2bc0d3;"/></g></g><g><path d="m459.54,704.47h-85.06v-291.83c0-15.37,1.76-36.79,5.29-64.26l-76.36,302.04h-44.98l-76.74-302.04c3.53,27.97,5.29,49.4,5.29,64.26v291.83h-85.06V112.86h83.54l92.99,326.99c1,3.53,1.76,12.47,2.27,26.84,0-6.3.76-15.24,2.27-26.84l92.99-326.99h83.54v591.61Z" style="fill:#fff;"/><path d="m821.31,650.41c0,36.04-18.02,54.06-54.06,54.06h-184.48c-35.03,0-52.55-18.02-52.55-54.06V167.3c0-36.29,17.51-54.44,52.55-54.44h184.48c36.04,0,54.06,18.15,54.06,54.44v138.36h-88.08v-116.81h-114.54v439.64h114.54v-124.37h88.08v146.3Z" style="fill:#fff;"/><path d="m1174.38,650.41c0,36.04-17.9,54.06-53.68,54.06h-178.05c-35.53,0-53.3-18.02-53.3-54.06v-141h88.46v120.59h108.11v-116.05l-177.29-167.84c-12.85-12.35-19.28-28.1-19.28-47.25v-131.55c0-36.29,17.77-54.44,53.3-54.44h178.05c35.78,0,53.68,17.9,53.68,53.68v132.31h-88.46v-111.52h-108.11v106.98l177.29,167.09c12.85,12.1,19.28,28.1,19.28,48.01v141Z" style="fill:#fff;"/></g></g></g></g></svg>