<?xml version="1.0" encoding="UTF-8"?><svg id="Layer_2" xmlns="http://www.w3.org/2000/svg" viewBox="0 0 1500.87 326.33"><g id="Layer_2-2"><path d="m673.81,81.96h-39.05v205.56h-35.27V81.96h-39.05v-31.33h113.37v31.33Z" style="fill:#b75656; stroke-width:0px;"/><path d="m813.07,287.51h-36.93l-39.05-110.04v-21.34h34.81v-75.08h-44.65v206.47h-35.42V50.62h94c14.23,0,21.34,7.27,21.34,21.8v86.13c0,9.99-3.38,16.45-10.14,19.38-3.63,1.51-11.3,2.27-23.01,2.27l39.05,107.32Z" style="fill:#b75656; stroke-width:0px;"/><path d="m954.75,287.51h-35.12l-7.11-44.96h-44.35l-7.11,44.96h-34.97v-.61l45.86-236.59h37.24l45.56,237.19Zm-47.23-75.38l-17.26-106.87-17.41,106.87h34.66Z" style="fill:#b75656; stroke-width:0px;"/><path d="m1091.13,265.87c0,14.43-7.22,21.65-21.65,21.65h-73.87c-14.03,0-21.04-7.21-21.04-21.65V72.42c0-14.53,7.01-21.8,21.04-21.8h73.87c14.43,0,21.65,7.27,21.65,21.8v55.4h-35.27v-46.77h-45.86v176.04h45.86v-49.8h35.27v58.58Z" style="fill:#b75656; stroke-width:0px;"/><path d="m1238.41,287.51h-39.05l-44.96-105.65v105.65h-35.42V50.62h35.42v100.21l39.36-100.21h38.75v1.67l-48.13,112.47,54.04,122.76Z" style="fill:#b75656; stroke-width:0px;"/><path d="m1350.88,287.51h-98.24V50.62h97.33v31.33h-61.91v69.17h53.28v30.73h-53.28v74.32h62.82v31.33Z" style="fill:#b75656; stroke-width:0px;"/><path d="m1496.34,287.51h-36.93l-39.05-110.04v-21.34h34.81v-75.08h-44.65v206.47h-35.42V50.62h94c14.23,0,21.34,7.27,21.34,21.8v86.13c0,9.99-3.38,16.45-10.14,19.38-3.63,1.51-11.3,2.27-23.01,2.27l39.05,107.32Z" style="fill:#b75656; stroke-width:0px;"/><path d="m584.76,18.35h883.94" style="fill:none; stroke:#b75656; stroke-linecap:round; stroke-linejoin:round; stroke-width:9.07px;"/><circle cx="570.94" cy="18.35" r="13.82" style="fill:none; stroke:#b75656; stroke-linecap:round; stroke-linejoin:round; stroke-width:9.07px;"/><circle cx="1482.52" cy="18.35" r="13.82" style="fill:none; stroke:#b75656; stroke-linecap:round; stroke-linejoin:round; stroke-width:9.07px;"/><line x1="4.53" y1="321.79" x2="1492.63" y2="321.79" style="fill:none; stroke:#b75656; stroke-linecap:round; stroke-linejoin:round; stroke-width:9.07px;"/><polygon points="99.69 146.39 102.67 135.9 68.1 14.34 62.13 14.34 99.69 146.39" style="fill:#b75656; stroke-width:0px;"/><polygon points="59.87 169.65 59.87 286.64 25.55 286.64 25.55 296.03 69.27 296.03 69.27 206.63 59.87 169.65" style="fill:#b75656; stroke-width:0px;"/><polygon points="136.56 168.96 113.63 261.24 97.1 261.24 99.49 270.64 123.55 270.64 136.56 217.58 136.56 168.96" style="fill:#b75656; stroke-width:0px;"/><polygon points="187.91 14.34 187.91 286.64 153.59 286.64 153.59 296.03 197.31 296.03 197.31 14.34 187.91 14.34" style="fill:#b75656; stroke-width:0px;"/><polygon points="262.68 44.4 262.68 239.46 272.08 239.46 272.08 53.8 304.85 53.8 304.85 44.4 262.68 44.4" style="fill:#b75656; stroke-width:0px;"/><path d="m357.87,257.01c0,9.59-2.55,17-7.59,22.04-5.03,5.03-12.45,7.59-22.04,7.59h-86.67c-4.11,0-7.82-.49-11.1-1.48.85,1.46,1.84,2.79,2.98,3.96,4.46,4.59,11.14,6.92,19.86,6.92h86.67c8.94,0,15.8-2.32,20.38-6.9,4.58-4.58,6.9-11.43,6.9-20.38v-70.61h-9.4v58.86Z" style="fill:#b75656; stroke-width:0px;"/><path d="m360.37,21.29c-1.22-1.23-2.6-2.29-4.14-3.19,1.08,3.5,1.64,7.49,1.64,11.95v69.23h-35.74v9.4h45.14V41.8c0-9-2.32-15.9-6.9-20.5Z" style="fill:#b75656; stroke-width:0px;"/><rect x="431.39" y="200.64" width="9.4" height="38.83" style="fill:#b75656; stroke-width:0px;"/><polygon points="431.39 43.69 431.39 84.43 440.79 93.29 440.79 53.09 470.83 53.09 470.83 43.69 431.39 43.69" style="fill:#b75656; stroke-width:0px;"/><path d="m523.49,178.6l-2.41-2.27c1.77,4.31,2.66,9.14,2.66,14.45v66.24c0,9.58-2.53,16.99-7.53,22.03-5.01,5.04-12.38,7.6-21.91,7.6h-83.65c-4.25,0-8.07-.52-11.44-1.54.87,1.49,1.89,2.84,3.06,4.03,4.52,4.58,11.29,6.91,20.12,6.91h83.65c8.89,0,15.7-2.32,20.25-6.9,4.55-4.58,6.85-11.43,6.85-20.37v-66.24c0-9.85-3.25-17.9-9.65-23.92Z" style="fill:#b75656; stroke-width:0px;"/><path d="m526.28,21.2c-1.21-1.21-2.59-2.26-4.12-3.15,1.05,3.42,1.58,7.31,1.58,11.65v66.39h-35.92v9.4h45.31V41.44c0-8.88-2.31-15.69-6.86-20.24Z" style="fill:#b75656; stroke-width:0px;"/><path d="m181.81,280.53h-39.96v-137.1c0-7.22.83-17.28,2.49-30.19l-35.87,141.9h-21.13L51.28,113.24c1.66,13.14,2.49,23.21,2.49,30.19v137.1H13.81V2.6h39.25l43.69,153.62c.47,1.66.83,5.86,1.07,12.61,0-2.96.36-7.16,1.07-12.61L142.56,2.6h39.25v277.93Z" style="fill:#fff; stroke-width:0px;"/><path d="m351.76,255.14c0,16.93-8.47,25.4-25.4,25.4h-86.67c-16.46,0-24.69-8.46-24.69-25.4V28.17c0-17.05,8.23-25.57,24.69-25.57h86.67c16.93,0,25.4,8.52,25.4,25.57v65h-41.38v-54.88h-53.81v206.54h53.81v-58.43h41.38v68.73Z" style="fill:#fff; stroke-width:0px;"/><path d="m517.63,255.14c0,16.93-8.41,25.4-25.22,25.4h-83.65c-16.69,0-25.04-8.46-25.04-25.4v-66.24h41.56v56.65h50.79v-54.52l-83.29-78.85c-6.04-5.8-9.06-13.2-9.06-22.2V28.17c0-17.05,8.35-25.57,25.04-25.57h83.65c16.81,0,25.22,8.41,25.22,25.22v62.16h-41.56v-52.39h-50.79v50.26l83.29,78.5c6.04,5.68,9.06,13.2,9.06,22.55v66.24Z" style="fill:#fff; stroke-width:0px;"/></g></svg>