<?xml version="1.0" encoding="UTF-8"?><svg id="Layer_2" xmlns="http://www.w3.org/2000/svg" viewBox="0 0 2206.67 326.33"><g id="Layer_2-2"><g><g><g><path d="m1218.2,286.54h-98.2V49.75h97.29v31.32h-61.88v69.15h53.26v30.71h-53.26v74.29h62.79v31.32Z" style="fill:#1f6291; stroke:#1f6291; stroke-width:.72px;"/><path d="m1360.43,286.54h-38.28l-26.02-83.37-26.18,83.37h-37.67v-1.21l44.18-119.98c-27.74-76.66-41.56-115.19-41.46-115.6h37.83l23.6,77.16,23.75-77.16h37.52v1.36l-41.46,113.33,44.18,122.1Z" style="fill:#1f6291; stroke:#1f6291; stroke-width:.72px;"/><path d="m1495.24,264.9c0,14.43-7.21,21.64-21.64,21.64h-73.84c-14.02,0-21.03-7.21-21.03-21.64V71.54c0-14.53,7.01-21.79,21.03-21.79h73.84c14.42,0,21.64,7.26,21.64,21.79v55.38h-35.25v-46.75h-45.85v175.97h45.85v-49.78h35.25v58.55Z" style="fill:#1f6291; stroke:#1f6291; stroke-width:.72px;"/><path d="m1642.16,286.54h-35.71v-106.22h-47.96v106.22h-35.41V49.75h35.41v97.59h47.96V49.75h35.71v236.79Z" style="fill:#1f6291; stroke:#1f6291; stroke-width:.72px;"/><path d="m1790.28,286.54h-35.1l-7.11-44.94h-44.33l-7.11,44.94h-34.95v-.61l45.85-236.49h37.22l45.54,237.09Zm-47.21-75.35l-17.25-106.82-17.4,106.82h34.65Z" style="fill:#1f6291; stroke:#1f6291; stroke-width:.72px;"/><path d="m1930.09,286.54h-31.02l-56.74-149.03c1.51,7.26,2.27,12.96,2.27,17.1v131.94h-34.5V49.75h31.02l56.74,146.01c-1.51-7.26-2.27-12.96-2.27-17.1V49.75h34.5v236.79Z" style="fill:#1f6291; stroke:#1f6291; stroke-width:.72px;"/><path d="m2075.64,264.9c0,14.43-7.21,21.64-21.64,21.64h-74.44c-14.02,0-21.03-7.21-21.03-21.64V71.54c0-14.53,7.16-21.79,21.49-21.79h73.99c14.42,0,21.64,7.26,21.64,21.79v50.54h-35.56v-41.91h-46.15v175.97h46.15v-66.27h-26.33v-30.11h61.88v105.16Z" style="fill:#1f6291; stroke:#1f6291; stroke-width:.72px;"/><path d="m2202.13,286.54h-98.2V49.75h97.29v31.32h-61.88v69.15h53.26v30.71h-53.26v74.29h62.79v31.32Z" style="fill:#1f6291; stroke:#1f6291; stroke-width:.72px;"/></g><g><path d="m1218.2,286.54h-98.2V49.75h97.29v31.32h-61.88v69.15h53.26v30.71h-53.26v74.29h62.79v31.32Z" style="fill:#56b95c;"/><path d="m1360.43,286.54h-38.28l-26.02-83.37-26.18,83.37h-37.67v-1.21l44.18-119.98c-27.74-76.66-41.56-115.19-41.46-115.6h37.83l23.6,77.16,23.75-77.16h37.52v1.36l-41.46,113.33,44.18,122.1Z" style="fill:#56b95c;"/><path d="m1495.24,264.9c0,14.43-7.21,21.64-21.64,21.64h-73.84c-14.02,0-21.03-7.21-21.03-21.64V71.54c0-14.53,7.01-21.79,21.03-21.79h73.84c14.42,0,21.64,7.26,21.64,21.79v55.38h-35.25v-46.75h-45.85v175.97h45.85v-49.78h35.25v58.55Z" style="fill:#56b95c;"/><path d="m1642.16,286.54h-35.71v-106.22h-47.96v106.22h-35.41V49.75h35.41v97.59h47.96V49.75h35.71v236.79Z" style="fill:#56b95c;"/><path d="m1790.28,286.54h-35.1l-7.11-44.94h-44.33l-7.11,44.94h-34.95v-.61l45.85-236.49h37.22l45.54,237.09Zm-47.21-75.35l-17.25-106.82-17.4,106.82h34.65Z" style="fill:#56b95c;"/><path d="m1930.09,286.54h-31.02l-56.74-149.03c1.51,7.26,2.27,12.96,2.27,17.1v131.94h-34.5V49.75h31.02l56.74,146.01c-1.51-7.26-2.27-12.96-2.27-17.1V49.75h34.5v236.79Z" style="fill:#56b95c;"/><path d="m2075.64,264.9c0,14.43-7.21,21.64-21.64,21.64h-74.44c-14.02,0-21.03-7.21-21.03-21.64V71.54c0-14.53,7.16-21.79,21.49-21.79h73.99c14.42,0,21.64,7.26,21.64,21.79v50.54h-35.56v-41.91h-46.15v175.97h46.15v-66.27h-26.33v-30.11h61.88v105.16Z" style="fill:#56b95c;"/><path d="m2202.13,286.54h-98.2V49.75h97.29v31.32h-61.88v69.15h53.26v30.71h-53.26v74.29h62.79v31.32Z" style="fill:#56b95c;"/></g></g><g><g><g><polygon points="117.16 169.49 117.16 134.24 108.08 134.24 108.08 159.4 46.96 159.4 46.96 232.82 56.05 232.82 56.05 169.49 117.16 169.49" style="fill:#56b95c;"/><polygon points="119.02 254.74 119.02 280.6 15.42 280.6 15.42 290.68 128.1 290.68 128.1 254.74 119.02 254.74" style="fill:#56b95c;"/><polygon points="127.06 18.95 117.98 18.95 117.98 44.8 46.96 44.8 46.96 112.32 56.05 112.32 56.05 54.89 127.06 54.89 127.06 18.95" style="fill:#56b95c;"/></g><g><polygon points="185.87 167.99 185.87 280.6 155.88 280.6 155.88 290.68 194.95 290.68 194.95 203.75 185.87 167.99" style="fill:#56b95c;"/><polygon points="223.01 135.18 225.16 127.62 194.26 18.95 189.96 18.95 223.01 135.18" style="fill:#56b95c;"/><polygon points="311.06 18.95 311.06 280.6 281.07 280.6 281.07 290.68 320.14 290.68 320.14 18.95 311.06 18.95" style="fill:#56b95c;"/><polygon points="260.16 168.27 238.04 255.77 225.21 255.77 227.77 265.85 248.43 265.85 260.16 219.46 260.16 168.27" style="fill:#56b95c;"/></g><g><polygon points="454.36 169.49 454.36 134.24 445.27 134.24 445.27 159.4 384.16 159.4 384.16 232.82 393.24 232.82 393.24 169.49 454.36 169.49" style="fill:#56b95c;"/><polygon points="456.21 254.74 456.21 280.6 352.61 280.6 352.61 290.68 465.3 290.68 465.3 254.74 456.21 254.74" style="fill:#56b95c;"/><polygon points="464.26 18.95 455.17 18.95 455.17 44.8 384.16 44.8 384.16 112.32 393.24 112.32 393.24 54.89 464.26 54.89 464.26 18.95" style="fill:#56b95c;"/></g><g><polygon points="524.62 150.93 524.62 280.6 493.08 280.6 493.08 290.68 533.71 290.68 533.71 176.55 524.62 150.93" style="fill:#56b95c;"/><polygon points="524.62 118.05 533.71 118.05 533.71 53.85 564.01 53.85 564.01 43.76 524.62 43.76 524.62 118.05" style="fill:#56b95c;"/><path d="m587.36,167.58c13.43,0,22.23-.87,26.39-2.6,7.75-3.36,11.63-10.77,11.63-22.23V43.95c0-10.3-3.13-17.41-9.37-21.35.19,1.7.28,3.49.28,5.35v98.8c0,17.42-8.27,24.65-15.2,27.65-2.69,1.12-7.6,2.53-20.34,2.96l44.85,123.24h-39.39l3.58,10.08h42.37l-44.8-123.11Z" style="fill:#56b95c;"/></g><g><polygon points="726.18 229.03 685.41 229.03 677.25 280.6 648.91 280.6 647.09 289.99 647.09 290.68 687.2 290.68 695.36 239.11 727.78 239.11 726.18 229.03" style="fill:#56b95c;"/><polygon points="692.7 182.3 704.31 182.3 711.47 138.38 705.69 102.58 692.7 182.3" style="fill:#56b95c;"/><polygon points="742.41 18.6 736.51 18.6 786.84 280.6 752.8 280.6 754.4 290.68 794.68 290.68 742.41 18.6" style="fill:#56b95c;"/></g><g><rect x="848.97" y="18.95" width="9.08" height="213.53" style="fill:#56b95c;"/><polygon points="915.12 254.39 915.12 280.6 817.42 280.6 817.42 290.68 924.21 290.68 924.21 254.39 915.12 254.39" style="fill:#56b95c;"/></g><g><path d="m988.97,53.85h30.21c.73,0,1.43.03,2.13.07-1.82-7.11-7.14-10.15-17.13-10.15h-24.3v190.1h9.08V53.85Z" style="fill:#56b95c;"/><path d="m1072.25,35.65c1.62,5.76,2.44,12.05,2.44,18.87v168.94c0,17.58-5.4,31.66-16.06,41.86-10.58,10.13-24.87,15.27-42.46,15.27h-67.82v10.08h82.82c16.09,0,28.88-4.54,38.37-13.63,9.49-9.09,14.24-21.62,14.24-37.59V70.52c0-14.36-3.85-25.98-11.52-34.87Z" style="fill:#56b95c;"/></g></g><g><g><path d="m113.1,274.68H.42V2.95h111.65v35.94H41.05v79.35h61.12v35.25h-61.12v85.25h72.06v35.94Z" style="fill:#1f6291; stroke:#1f6291; stroke-width:.83px;"/><path d="m305.14,274.68h-39.07v-134.04c0-7.06.81-16.9,2.43-29.52l-35.07,138.73h-20.66l-35.25-138.73c1.62,12.85,2.43,22.69,2.43,29.52v134.04h-39.07V2.95h38.37l42.71,150.19c.46,1.62.81,5.73,1.04,12.33,0-2.89.35-7,1.04-12.33L266.77,2.95h38.37v271.73Z" style="fill:#1f6291; stroke:#1f6291; stroke-width:.83px;"/><path d="m450.3,274.68h-112.69V2.95h111.65v35.94h-71.02v79.35h61.12v35.25h-61.12v85.25h72.06v35.94Z" style="fill:#1f6291; stroke:#1f6291; stroke-width:.83px;"/><path d="m617.16,274.68h-42.37l-44.8-126.23v-24.48h39.94V37.85h-51.22v236.83h-40.63V2.95h107.83c16.32,0,24.48,8.33,24.48,25v98.8c0,11.46-3.88,18.87-11.63,22.23-4.17,1.74-12.97,2.6-26.39,2.6l44.8,123.11Z" style="fill:#1f6291; stroke:#1f6291; stroke-width:.83px;"/><path d="m779.68,274.68h-40.28l-8.16-51.57h-50.87l-8.16,51.57h-40.11v-.69L684.7,2.6h42.71l52.26,272.08Zm-54.17-86.47l-19.79-122.58-19.97,122.58h39.76Z" style="fill:#1f6291; stroke:#1f6291; stroke-width:.83px;"/><path d="m909.21,274.68h-106.78V2.95h40.63v235.45h66.15v36.29Z" style="fill:#1f6291; stroke:#1f6291; stroke-width:.83px;"/><path d="m1068.78,223.46c0,15.97-4.75,28.51-14.24,37.59-9.49,9.09-22.28,13.63-38.37,13.63h-82.82V2.95h82.82c16.09,0,28.88,4.6,38.37,13.8,9.49,9.2,14.24,21.79,14.24,37.77v168.94Zm-40.8-6.77V60.59c0-15.16-7.93-22.75-23.79-22.75h-30.21v201.93h29.17c16.55,0,24.83-7.7,24.83-23.09Z" style="fill:#1f6291; stroke:#1f6291; stroke-width:.83px;"/></g><g><path d="m113.1,274.68H.42V2.95h111.65v35.94H41.05v79.35h61.12v35.25h-61.12v85.25h72.06v35.94Z" style="fill:#fff;"/><path d="m305.14,274.68h-39.07v-134.04c0-7.06.81-16.9,2.43-29.52l-35.07,138.73h-20.66l-35.25-138.73c1.62,12.85,2.43,22.69,2.43,29.52v134.04h-39.07V2.95h38.37l42.71,150.19c.46,1.62.81,5.73,1.04,12.33,0-2.89.35-7,1.04-12.33L266.77,2.95h38.37v271.73Z" style="fill:#fff;"/><path d="m450.3,274.68h-112.69V2.95h111.65v35.94h-71.02v79.35h61.12v35.25h-61.12v85.25h72.06v35.94Z" style="fill:#fff;"/><path d="m617.16,274.68h-42.37l-44.8-126.23v-24.48h39.94V37.85h-51.22v236.83h-40.63V2.95h107.83c16.32,0,24.48,8.33,24.48,25v98.8c0,11.46-3.88,18.87-11.63,22.23-4.17,1.74-12.97,2.6-26.39,2.6l44.8,123.11Z" style="fill:#fff;"/><path d="m779.68,274.68h-40.28l-8.16-51.57h-50.87l-8.16,51.57h-40.11v-.69L684.7,2.6h42.71l52.26,272.08Zm-54.17-86.47l-19.79-122.58-19.97,122.58h39.76Z" style="fill:#fff;"/><path d="m909.21,274.68h-106.78V2.95h40.63v235.45h66.15v36.29Z" style="fill:#fff;"/><path d="m1068.78,223.46c0,15.97-4.75,28.51-14.24,37.59-9.49,9.09-22.28,13.63-38.37,13.63h-82.82V2.95h82.82c16.09,0,28.88,4.6,38.37,13.8,9.49,9.2,14.24,21.79,14.24,37.77v168.94Zm-40.8-6.77V60.59c0-15.16-7.93-22.75-23.79-22.75h-30.21v201.93h29.17c16.55,0,24.83-7.7,24.83-23.09Z" style="fill:#fff;"/></g></g></g><g><path d="m1134.97,18.35h1039.53" style="fill:none; stroke:#56b95c; stroke-linecap:round; stroke-linejoin:round; stroke-width:9.07px;"/><circle cx="1121.15" cy="18.35" r="13.82" style="fill:none; stroke:#56b95c; stroke-linecap:round; stroke-linejoin:round; stroke-width:9.07px;"/><circle cx="2188.32" cy="18.35" r="13.82" style="fill:none; stroke:#56b95c; stroke-linecap:round; stroke-linejoin:round; stroke-width:9.07px;"/></g><line x1="5.12" y1="321.79" x2="2198.43" y2="321.79" style="fill:none; stroke:#56b95c; stroke-linecap:round; stroke-linejoin:round; stroke-width:9.07px;"/></g></g></svg>