<?xml version="1.0" encoding="UTF-8"?><svg id="Layer_2" xmlns="http://www.w3.org/2000/svg" viewBox="0 0 135.41 135.41"><g id="Layer_2-2"><rect x="14" y="14" width="121.41" height="121.41" rx="12" ry="12" style="fill:#2bc0d3;"/><rect x="3" y="3" width="121.41" height="121.41" rx="12" ry="12" style="fill:none; stroke:#606060; stroke-miterlimit:10; stroke-width:6px;"/><rect x="3" y="3" width="121.41" height="121.41" rx="12" ry="12" style="fill:#0d2c47;"/><path d="m96.61,42.76c-1.04-7.84-4.42-14.54-10.25-19.82-9.54-8.63-20.67-11.12-32.93-7.29-12.76,3.98-21.97,15.55-22.85,29.49-.4,6.23.86,12.15,3.88,17.65,1.01,1.85,2.16,3.62,3.25,5.43l.55,1.16c.21.35.4.69.59,1.02l.95,1.62.19.38c7.91,13.7,15.79,27.35,23.74,41.11,1.89-3.28,3.68-6.41,5.49-9.53,4.72-8.17,9.44-16.33,14.16-24.49,2.78-4.81,5.47-9.68,8.36-14.43,4.19-6.89,5.94-14.27,4.88-22.29Zm-32.99,17.95c-8.05-.01-14.74-6.71-14.7-14.8.04-8.52,7.04-14.93,14.87-14.77,8.18,0,14.76,6.64,14.75,14.89,0,8.07-6.74,14.69-14.92,14.68Z" style="fill:#2bc0d3;"/></g></svg>